<svg xmlns="http://www.w3.org/2000/svg" width="800" height="476.946" viewBox="0 0 800 476.946">
  <g id="Group_40510" data-name="Group 40510" transform="translate(-73 -245)">
    <path id="Path_13160" data-name="Path 13160" d="M121.767,49.43v2.435a7.144,7.144,0,0,1-2.354,5.2L104.639,70.7a7.225,7.225,0,0,1-4.059,1.136,6.576,6.576,0,0,1-4.789-1.542,40.589,40.589,0,0,0-23.542-8.118,31.253,31.253,0,0,0-23.055,9.579,33.526,33.526,0,0,0-9.335,24.353V208.864a8.118,8.118,0,0,1-8.118,8.118H11.2A8.118,8.118,0,0,1,5.2,214.546a8.118,8.118,0,0,1-2.435-6.007L4.79,74.271A151.158,151.158,0,0,0,3.41,52.434c-.974-5.926-1.542-9.66-1.786-10.959A51.791,51.791,0,0,1,0,33.357V32.221A5.682,5.682,0,0,1,1.786,28a6.251,6.251,0,0,1,4.627-1.786L31.985,21.83a6.575,6.575,0,0,1,3.978,1.38A7.225,7.225,0,0,1,38.8,26.619,28.33,28.33,0,0,1,40.021,31,64.292,64.292,0,0,1,68.758,24.59a69.894,69.894,0,0,1,27.6,5.6,70.787,70.787,0,0,1,23.623,16.236Z" transform="translate(73 399.003)" fill="#fff"/>
    <path id="Path_13161" data-name="Path 13161" d="M69.779,38.235a23.412,23.412,0,0,1-7.387,17.227,24.456,24.456,0,0,1-17.778,7.326A24.618,24.618,0,0,1,26.836,20.606a25.069,25.069,0,0,1,35.556,0A24.05,24.05,0,0,1,69.779,38.235ZM56.3,80.257h-23.3a6.93,6.93,0,0,0-4.952,2.013,6.5,6.5,0,0,0-2.192,5.152l-1.218,63.435V205.6l1.218,63.515a6.1,6.1,0,0,0,2.192,4.75,7.338,7.338,0,0,0,4.952,2.013H56.3a6.684,6.684,0,0,0,4.79-2.013,6.254,6.254,0,0,0,2.029-4.75l1.3-63.515V150.856L62.879,87.421a6.652,6.652,0,0,0-2.029-5.152A6.356,6.356,0,0,0,56.3,80.257Z" transform="translate(210.747 339.036)" fill="#fff"/>
    <path id="Path_13162" data-name="Path 13162" d="M171.485,146.867a54.227,54.227,0,0,1,2.841,17.21A45.46,45.46,0,0,1,164.1,193.219a64.942,64.942,0,0,1-26.789,19.645,91.894,91.894,0,0,1-35.394,6.738,90.027,90.027,0,0,1-39.534-8.93A73.06,73.06,0,0,1,31.94,183.64a8.117,8.117,0,0,1-.812-3.978,6.657,6.657,0,0,1,3.653-6.819l20.051-11.121A7.631,7.631,0,0,1,58,160.911a7.469,7.469,0,0,1,6.007,2.841,50.817,50.817,0,0,0,17.616,12.339,51.466,51.466,0,0,0,21.187,4.871,45.947,45.947,0,0,0,21.431-5.2,16.236,16.236,0,0,0,9.741-14.856,14.531,14.531,0,0,0-8.118-13.8,94.655,94.655,0,0,0-24.353-7.387,198.4,198.4,0,0,1-28.737-8.118A62.588,62.588,0,0,1,44.36,110.418a49.681,49.681,0,0,1-9.579-29.224,53.821,53.821,0,0,1,15.343-37.18A71.274,71.274,0,0,1,92.742,22.827a113.649,113.649,0,0,1,16.236-1.218A75.252,75.252,0,0,1,176.6,58.951a6.982,6.982,0,0,1,1.136,3.978,7.468,7.468,0,0,1-3.978,6.819L156.142,80.139a11.121,11.121,0,0,1-3.572.812,8.118,8.118,0,0,1-6.413-2.76,48.707,48.707,0,0,0-39.209-19.645,59.342,59.342,0,0,0-8.118.812,35.961,35.961,0,0,0-16.236,6.819,15.5,15.5,0,0,0-7.225,10.8,21.918,21.918,0,0,0,4.059,16.236,28.981,28.981,0,0,0,12.745,9.011,177.3,177.3,0,0,0,22.811,6.17c10.634,2.679,19.32,5.2,25.977,7.631a57.312,57.312,0,0,1,18.59,10.959,42.618,42.618,0,0,1,11.933,19.889Z" transform="translate(292.751 397.116)" fill="#fff"/>
    <path id="Path_13163" data-name="Path 13163" d="M169.542,303.637l-55.932-74.6L94.777,252.008,93.56,302.095a6.576,6.576,0,0,1-1.948,4.789,6.9,6.9,0,0,1-4.789,2.029h-23.7a6.656,6.656,0,0,1-4.789-2.029,6.332,6.332,0,0,1-2.03-4.789L55,238.045V158.41L56.218,15.7a6.9,6.9,0,0,1,6.9-6.819H86.741A6.819,6.819,0,0,1,93.478,15.7l1.3,142.711v31.659l62.426-73.06a12.339,12.339,0,0,1,10.391-5.2h27.519a6.494,6.494,0,0,1,4.871,2.192,7.387,7.387,0,0,1,1.948,5.033,7.062,7.062,0,0,1-1.542,4.384l-59.26,73.06a2.76,2.76,0,0,0,0,4.059l70.462,97.495a5.926,5.926,0,0,1,1.542,4.384,6.169,6.169,0,0,1-2.192,4.789,7.468,7.468,0,0,1-4.952,2.029H180.745a13.638,13.638,0,0,1-11.2-5.6Z" transform="translate(461.916 307.315)" fill="#fff"/>
    <path id="Path_13164" data-name="Path 13164" d="M.4,90.021V68.428a14.775,14.775,0,0,1,2.354-7.306,14.775,14.775,0,0,1,5.6-5.358A14.45,14.45,0,0,1,15.9,53a15.18,15.18,0,0,1,8.118,2.111,17.292,17.292,0,0,1,5.6,6.007,16.236,16.236,0,0,1,0,15.586,17.291,17.291,0,0,1-5.682,5.682A15.18,15.18,0,0,1,15.824,84.5a12.339,12.339,0,0,1-5.114-1.218,10.715,10.715,0,0,1-3.9-2.922h0v19a1.461,1.461,0,0,1,0,.893,1.218,1.218,0,0,1-.893,0H1.861a1.218,1.218,0,0,1-.893,0,1.38,1.38,0,0,1,0-.893C.562,97.977.481,94.811.4,90.021ZM7.95,73.786A10.309,10.309,0,0,0,11.278,77.2,9.173,9.173,0,0,0,15.9,78.413a8.93,8.93,0,0,0,4.627-1.055,10.554,10.554,0,0,0,3.409-3.409,9.417,9.417,0,0,0,0-9.254,9.173,9.173,0,0,0-3.409-3.572A8.93,8.93,0,0,0,15.9,59.9a9.173,9.173,0,0,0-4.627,1.218A10.31,10.31,0,0,0,7.95,64.532a8.93,8.93,0,0,0,0,9.254Z" transform="translate(75.848 620.029)" fill="#fff"/>
    <path id="Path_13165" data-name="Path 13165" d="M28.3,55.155a16.235,16.235,0,0,1,5.682,5.682,16.236,16.236,0,0,1,0,15.586A15.261,15.261,0,0,1,28.3,82.106,15.594,15.594,0,0,1,7.033,60.837a16.236,16.236,0,0,1,5.682-5.682,15.18,15.18,0,0,1,8.118-2.111A15.586,15.586,0,0,1,28.3,55.155ZM15.8,60.837a9.823,9.823,0,0,0-3.409,3.409,8.93,8.93,0,0,0-1.218,4.627,9.5,9.5,0,0,0,1.218,4.708A9.823,9.823,0,0,0,15.8,76.992a8.767,8.767,0,0,0,4.708,1.3,8.929,8.929,0,0,0,4.708-1.218,9.174,9.174,0,0,0,3.409-3.409,9.5,9.5,0,0,0,1.218-4.708,8.93,8.93,0,0,0-1.218-4.627,9.173,9.173,0,0,0-3.409-3.491,8.93,8.93,0,0,0-4.708-1.3,8.767,8.767,0,0,0-4.708,1.3Z" transform="translate(108.586 620.314)" fill="#fff"/>
    <path id="Path_13166" data-name="Path 13166" d="M42.989,53.179a.974.974,0,0,1,.649,0h4.708a1.055,1.055,0,0,1,0,.974L40.229,82.565a1.055,1.055,0,0,1-1.055.812H34.952a1.055,1.055,0,0,1-.649,0,1.462,1.462,0,0,1-.406-.568L28.539,66.086,23.1,82.809a.812.812,0,0,1,0,.568H17.5a.812.812,0,0,1,0-.568L9.381,54.4h0a1.055,1.055,0,0,1,0-.812,1.38,1.38,0,0,1,.812,0h3.653a1.137,1.137,0,0,1,1.055.731L20.178,73.8,25.7,57.562a1.055,1.055,0,0,1,1.055-.731h3.815a.737.737,0,0,1,1.055.568l5.52,16.236,5.277-19.483a.974.974,0,0,1,.568-.974Z" transform="translate(139.196 620.91)" fill="#fff"/>
    <path id="Path_13167" data-name="Path 13167" d="M44.15,67.652a2.922,2.922,0,0,1-1.136,2.192,3.816,3.816,0,0,1-2.517.893H21.176v.487a8.118,8.118,0,0,0,3.409,5.033,11.121,11.121,0,0,0,6.17,1.624,10.147,10.147,0,0,0,3.9-.812,13.15,13.15,0,0,0,3.572-2.192,1.218,1.218,0,0,1,1.624,0l2.517,2.435a.974.974,0,0,1,.406.812,1.3,1.3,0,0,1-.406.893,16.236,16.236,0,0,1-11.69,4.952,15.586,15.586,0,0,1-8.118-2.111,15.261,15.261,0,0,1-5.764-5.6,15.749,15.749,0,0,1-2.029-8.118,17.049,17.049,0,0,1,0-2.273,15.586,15.586,0,0,1,2.192-6.657,15.018,15.018,0,0,1,5.52-4.546,17.291,17.291,0,0,1,7.387-1.624h1.867a12.664,12.664,0,0,1,6.251,2.435,15.261,15.261,0,0,1,4.465,4.952,11.608,11.608,0,0,1,1.624,5.6ZM24.342,60.833A8.6,8.6,0,0,0,21.1,65.7h0v.406a.406.406,0,0,0,.406,0H38.224a.487.487,0,0,0,0-.568,11.2,11.2,0,0,0-2.841-4.871,7.062,7.062,0,0,0-5.439-2.03A8.686,8.686,0,0,0,24.342,60.833Z" transform="translate(177.813 620.318)" fill="#fff"/>
    <path id="Path_13168" data-name="Path 13168" d="M37.95,57.625a.893.893,0,0,1-.406.812l-2.273,2.192h-.649A.974.974,0,0,1,34.3,60.3a6.494,6.494,0,0,0-3.734-1.3,4.952,4.952,0,0,0-3.653,1.461,5.358,5.358,0,0,0-1.461,3.9v17.7a1.3,1.3,0,0,1,0,.974,1.461,1.461,0,0,1-.974.406H20.5a1.3,1.3,0,0,1-.893-.406,1.055,1.055,0,0,1-.406-.974V60.954a21.35,21.35,0,0,0,0-3.491,13.151,13.151,0,0,1,0-1.7,3.247,3.247,0,0,1,0-1.3h0a.974.974,0,0,1,0-.649,1.055,1.055,0,0,1,.731,0l4.059-.649a.893.893,0,0,1,.568,0,.974.974,0,0,1,.487.487s0,.487,0,.731a10.715,10.715,0,0,1,4.546-1.055,11.364,11.364,0,0,1,4.3.893,11.04,11.04,0,0,1,3.734,2.6,1.3,1.3,0,0,1,.325.812Z" transform="translate(208.444 620.847)" fill="#fff"/>
    <path id="Path_13169" data-name="Path 13169" d="M51.96,67.866a2.922,2.922,0,0,1-1.137,2.192,3.816,3.816,0,0,1-2.516.893H28.987a.406.406,0,0,0-.406,0s0,0,0,.487a8.118,8.118,0,0,0,3.491,5.033,10.716,10.716,0,0,0,6.088,1.624,10.147,10.147,0,0,0,3.9-.812,13.151,13.151,0,0,0,3.572-2.192.974.974,0,0,1,.812,0,.893.893,0,0,1,.812,0l2.517,2.435a.974.974,0,0,1,.406.812,1.3,1.3,0,0,1-.406.893,16.236,16.236,0,0,1-11.69,4.952,15.586,15.586,0,0,1-8.118-2.111,15.424,15.424,0,0,1-8.118-13.638,17.045,17.045,0,0,1,0-2.273A15.586,15.586,0,0,1,24.6,59.18a15.018,15.018,0,0,1,5.52-4.546,17.291,17.291,0,0,1,7.387-1.624h1.867a12.664,12.664,0,0,1,6.251,2.435A15.261,15.261,0,0,1,50.093,60.4,10.8,10.8,0,0,1,51.717,66ZM32.153,61.047a8.118,8.118,0,0,0-3.166,4.871h0a.649.649,0,0,0,0,.406H45.628a.568.568,0,0,0,.487,0,.487.487,0,0,0,0-.568,11.2,11.2,0,0,0-2.841-4.871,7.063,7.063,0,0,0-5.439-2.03A8.686,8.686,0,0,0,32.153,61.047Z" transform="translate(227.358 620.105)" fill="#fff"/>
    <path id="Path_13170" data-name="Path 13170" d="M57.465,61.045V81.826a15.667,15.667,0,0,1-8.118,12.826,14.206,14.206,0,0,1-7.55,2.03A15.918,15.918,0,0,1,28.4,72.978,16.236,16.236,0,0,1,34,67.3a15.18,15.18,0,0,1,8.118-2.111A11.77,11.77,0,0,1,47.155,66.4a8.929,8.929,0,0,1,3.978,2.922h0V52.277a1.3,1.3,0,0,1,.406-.893,1.218,1.218,0,0,1,.893,0H56.41A1.137,1.137,0,0,1,57.627,52.6,78.231,78.231,0,0,0,57.465,61.045Zm-7.55,15.343a10.31,10.31,0,0,0-3.328-3.41,9.417,9.417,0,0,0-9.254,0,11.365,11.365,0,0,0-3.409,3.409,9.417,9.417,0,0,0,0,9.254,9.823,9.823,0,0,0,3.409,3.409,9.416,9.416,0,0,0,4.627,1.218,8.93,8.93,0,0,0,4.627-1.218,10.31,10.31,0,0,0,3.328-3.409A8.93,8.93,0,0,0,49.915,76.387Z" transform="translate(259.101 607.93)" fill="#fff"/>
    <path id="Path_13171" data-name="Path 13171" d="M36.152,72.5V52.287a1.055,1.055,0,0,1,0-.893,1.218,1.218,0,0,1,.893,0h3.328a1.218,1.218,0,0,1,.893,0,1.3,1.3,0,0,1,0,.893V69.416h0a8.929,8.929,0,0,1,3.978-2.922,11.772,11.772,0,0,1,5.033-1.218A15.18,15.18,0,0,1,58.4,67.386a17.291,17.291,0,0,1,5.682,5.683A15.567,15.567,0,0,1,58.4,94.337a15.18,15.18,0,0,1-8.118,2.111,14.45,14.45,0,0,1-7.55-2.029A15.667,15.667,0,0,1,34.61,81.592C36.234,79.4,36.152,76.4,36.152,72.5Zm11.04,0a8.6,8.6,0,0,0-3.409,3.409,8.93,8.93,0,0,0-1.218,4.627,8.117,8.117,0,0,0,1.3,4.627,10.31,10.31,0,0,0,3.328,3.409,9.173,9.173,0,0,0,4.627,1.218,8.848,8.848,0,0,0,4.546-1.218,9.823,9.823,0,0,0,3.409-3.41,8.93,8.93,0,0,0,0-9.254A9.822,9.822,0,0,0,56.366,72.5,9.254,9.254,0,0,0,47.193,72.5Z" transform="translate(317.999 608.001)" fill="#fff"/>
    <path id="Path_13172" data-name="Path 13172" d="M45.215,100.284a1.3,1.3,0,0,1,0-1.218l5.6-15.586L39.208,55.067h0a.974.974,0,0,1,0-.812.812.812,0,0,1,.731,0h3.9a.974.974,0,0,1,.974.649l9.579,19.726L63.4,53.85a1.136,1.136,0,0,1,1.055-.649h3.9a1.136,1.136,0,0,1,.893.487,1.055,1.055,0,0,1,0,.974L51.3,99.634a1.055,1.055,0,0,1-.487.568,1.38,1.38,0,0,1-.812,0H46.27a1.136,1.136,0,0,1-1.055.081Z" transform="translate(349.921 621.457)" fill="#fff"/>
    <path id="Path_13173" data-name="Path 13173" d="M71.944,83.089a1.136,1.136,0,0,1-1.055,1.136H67.4a1.137,1.137,0,0,1-.812-.406.893.893,0,0,1,0-.731v-16.8A7.062,7.062,0,0,0,59.524,58.9a6.981,6.981,0,0,0-4.871,2.029,6.738,6.738,0,0,0-2.111,5.358v16.8a.893.893,0,0,1,0,.731.974.974,0,0,1-.812.406H48.24a1.137,1.137,0,0,1-.812-.406.893.893,0,0,1,0-.731V54.758a1.137,1.137,0,0,1,.406-.812,1.218,1.218,0,0,1,.731,0H52.38a1.218,1.218,0,0,1,.731,0,1.623,1.623,0,0,1,0,.731v1.7a8.118,8.118,0,0,1,7.062-3.328A13.556,13.556,0,0,1,67.48,54.92a11.689,11.689,0,0,1,4.465,4.871,14.937,14.937,0,0,1,1.461,6.494Z" transform="translate(408.199 620.305)" fill="#fff"/>
    <path id="Path_13174" data-name="Path 13174" d="M81.091,67.937a3.328,3.328,0,0,1-1.218,2.192,3.653,3.653,0,0,1-2.517.893H58.117a.568.568,0,0,0-.487,0,.487.487,0,0,0,0,.487,7.306,7.306,0,0,0,3.409,5.033,10.716,10.716,0,0,0,6.088,1.624,9.9,9.9,0,0,0,3.9-.812A12.013,12.013,0,0,0,74.6,75.162a1.055,1.055,0,0,1,.812,0,.893.893,0,0,1,.812,0L78.736,77.6a.974.974,0,0,1,.406.812,1.3,1.3,0,0,1-.406.893A16.236,16.236,0,0,1,59.01,82.143a15.1,15.1,0,0,1-5.682-5.6,16.236,16.236,0,0,1-2.111-8.118,14.531,14.531,0,0,1,8.118-13.8A16.884,16.884,0,0,1,66.641,53h1.867a12.664,12.664,0,0,1,6.251,2.435,14.368,14.368,0,0,1,4.465,4.952,10.877,10.877,0,0,1,1.7,5.6ZM61.2,61.118a8.118,8.118,0,0,0-3.166,4.871h0a.649.649,0,0,0,0,.406H74.759a.374.374,0,1,0,.487-.568A11.2,11.2,0,0,0,72.4,60.956a7.063,7.063,0,0,0-5.439-2.03A8.849,8.849,0,0,0,61.2,61.118Z" transform="translate(435.424 620.033)" fill="#fff"/>
    <path id="Path_13175" data-name="Path 13175" d="M55.778,81.222a1.136,1.136,0,0,1,0-.812V79.76l8.767-11.284L55.616,56.95a.974.974,0,0,1,0-.649.893.893,0,0,1,0-.812l2.841-2.273a.893.893,0,0,1,.649,0,.812.812,0,0,1,.812,0l8.118,10.147,8.118-10.147a5552.339,5552.339,0,0,0,1.461,0l2.841,2.273a1.136,1.136,0,0,1,.406.812,1.055,1.055,0,0,1,0,.649L72.419,68.477,81.43,80.085a.73.73,0,0,1,0,.568,1.137,1.137,0,0,1-.406.812l-2.841,2.273a.893.893,0,0,1-.649,0,1.137,1.137,0,0,1-.812-.406L68.6,73.1,60.486,83.332a1.7,1.7,0,0,1-1.461.406Z" transform="translate(466.018 620.792)" fill="#fff"/>
    <path id="Path_13176" data-name="Path 13176" d="M79.572,66.894a.974.974,0,0,1,0,.731v3.734a1.055,1.055,0,0,1,0,.812,1.218,1.218,0,0,1-.731,0H72.591V96.118a.974.974,0,0,1,0,.731,1.46,1.46,0,0,1-.731,0H67.4a1.461,1.461,0,0,1-.812,0,.974.974,0,0,1,0-.731V72.739h-6.17a1.461,1.461,0,0,1-.812,0,1.055,1.055,0,0,1,0-.731V68.193a.975.975,0,0,1,0-.731,1.055,1.055,0,0,1,.812,0h6.17V52.038a.812.812,0,0,1,0-.731.974.974,0,0,1,.812,0h4.059a.974.974,0,0,1,.731,0,.812.812,0,0,1,0,.731V67.462h6.251a1.218,1.218,0,0,1,1.136-.568Z" transform="translate(494.446 607.357)" fill="#fff"/>
    <path id="Path_13177" data-name="Path 13177" d="M62.57,89.521V67.928a14.693,14.693,0,0,1,2.273-7.468,16.236,16.236,0,0,1,5.6-5.358,14.693,14.693,0,0,1,7.631-2.029,15.587,15.587,0,0,1,8.118,2.111,16.236,16.236,0,0,1,5.6,5.682,15.424,15.424,0,0,1,0,15.586,16.236,16.236,0,0,1-5.6,5.682,15.586,15.586,0,0,1-8.118,2.111,12.339,12.339,0,0,1-5.114-1.218,9.417,9.417,0,0,1-3.9-2.922h0v19a1.38,1.38,0,0,1,0,.893,1.218,1.218,0,0,1-.893,0H64.843a1.218,1.218,0,0,1-.893,0,1.461,1.461,0,0,1,0-.893C62.732,97.477,62.651,94.311,62.57,89.521Zm7.468-16.236a10.553,10.553,0,0,0,3.41,3.409,9.417,9.417,0,0,0,9.254,0,10.309,10.309,0,0,0,3.328-3.409,8.93,8.93,0,0,0,0-9.254,9.254,9.254,0,0,0-12.583-3.41,10.552,10.552,0,0,0-3.41,3.409A9.417,9.417,0,0,0,70.038,73.286Z" transform="translate(515.924 620.53)" fill="#fff"/>
    <path id="Path_13178" data-name="Path 13178" d="M97.837,74.252v8.524a1.3,1.3,0,0,1,0,.893,1.38,1.38,0,0,1-.974.406h-3.9a1.136,1.136,0,0,1-.812-.406,1.3,1.3,0,0,1,0-.893v-2.76h0a8.93,8.93,0,0,1-3.9,3,12.339,12.339,0,0,1-5.114,1.218,15.18,15.18,0,0,1-8.118-2.111,14.693,14.693,0,0,1-5.682-5.682,15.424,15.424,0,0,1,0-15.586,16.235,16.235,0,0,1,5.682-5.682,15.18,15.18,0,0,1,8.118-2.111,14.206,14.206,0,0,1,7.55,2.029,16.235,16.235,0,0,1,5.6,5.358,14.693,14.693,0,0,1,2.273,7.468A19.026,19.026,0,0,0,97.837,74.252ZM86.959,76.931a10.31,10.31,0,0,0,3.328-3.41,9.579,9.579,0,0,0,0-9.335,10.309,10.309,0,0,0-3.409-3.328,9.254,9.254,0,0,0-9.173,0A11.365,11.365,0,0,0,74.3,64.267a9.417,9.417,0,0,0,0,9.254A11.365,11.365,0,0,0,77.7,76.931a9.417,9.417,0,0,0,9.254,0Z" transform="translate(548.909 620.456)" fill="#fff"/>
    <path id="Path_13179" data-name="Path 13179" d="M77.575,99.42a1.137,1.137,0,0,1,0-1.218l5.6-15.586L71.568,54.2h0a.546.546,0,1,1,.731-.812h3.9a1.136,1.136,0,0,1,1.055.649l9.092,20.782,9.011-20.782a1.055,1.055,0,0,1,1.055-.649h3.653a1.055,1.055,0,0,1,.893.487.893.893,0,0,1,0,.974L83.826,98.771a1.055,1.055,0,0,1-.487.568,1.137,1.137,0,0,1-.731,0H79.036a1.218,1.218,0,0,1-1.461.081Z" transform="translate(578.996 622.32)" fill="#fff"/>
    <path id="Path_13180" data-name="Path 13180" d="M265.886,122.985V29.955C194.044,40.1,170.746,0,170.746,0S147.367,40.1,75.605,29.955v93.03s-1.38,28.169,10.147,43.836a183.787,183.787,0,0,0,84.993,68.6,183.787,183.787,0,0,0,84.912-68.6C267.185,151.153,265.886,122.985,265.886,122.985Zm-30.848,40.589A212.525,212.525,0,0,1,170.827,213.5a212.279,212.279,0,0,1-64.293-49.924c-13.638-13.963-11.121-37.18-11.121-37.18V50.655a115.516,115.516,0,0,0,75.5-24.353,115.192,115.192,0,0,0,75.414,24.353v75.739s2.192,23.217-11.365,36.774Z" transform="translate(607.07 245)" fill="#e99323"/>
    <rect id="Rectangle_8236" data-name="Rectangle 8236" width="85.399" height="18.021" transform="translate(735.116 315.544)" fill="#e99323"/>
    <rect id="Rectangle_8237" data-name="Rectangle 8237" width="85.399" height="18.021" transform="translate(735.116 348.975)" fill="#e99323"/>
    <rect id="Rectangle_8238" data-name="Rectangle 8238" width="85.399" height="18.021" transform="translate(735.116 382.826)" fill="#e99323"/>
  </g>
</svg>
