<svg xmlns="http://www.w3.org/2000/svg" xmlns:xlink="http://www.w3.org/1999/xlink" width="190" height="234.95" viewBox="0 0 190 234.95">
  <defs>
    <clipPath id="clip-Favicon">
      <rect width="190" height="234.95"/>
    </clipPath>
  </defs>
  <g id="Favicon" clip-path="url(#clip-Favicon)">
    <g id="Group_40512" data-name="Group 40512" transform="translate(-609.624)">
      <path id="Path_13180" data-name="Path 13180" d="M265.51,122.741V29.9C193.809,40.023,170.557,0,170.557,0S147.224,40.023,75.605,29.9v92.846s-1.377,28.113,10.127,43.749a183.423,183.423,0,0,0,84.825,68.46,183.423,183.423,0,0,0,84.744-68.46C266.806,150.854,265.51,122.741,265.51,122.741ZM234.723,163.25a212.1,212.1,0,0,1-64.085,49.826,211.86,211.86,0,0,1-64.166-49.826c-13.611-13.935-11.1-37.106-11.1-37.106V50.555A115.288,115.288,0,0,0,170.719,26.25a114.964,114.964,0,0,0,75.265,24.305v75.589s2.187,23.171-11.342,36.7Z" transform="translate(534.07 0)" fill="#e99323"/>
      <rect id="Rectangle_8236" data-name="Rectangle 8236" width="85.399" height="18.021" transform="translate(661.928 70.393)" fill="#e99323"/>
      <rect id="Rectangle_8237" data-name="Rectangle 8237" width="85.399" height="18.021" transform="translate(661.928 103.753)" fill="#e99323"/>
      <rect id="Rectangle_8238" data-name="Rectangle 8238" width="85.399" height="18.021" transform="translate(661.928 137.531)" fill="#e99323"/>
    </g>
  </g>
</svg>
