<svg xmlns="http://www.w3.org/2000/svg" xmlns:xlink="http://www.w3.org/1999/xlink" width="800" height="476.95" viewBox="0 0 800 476.95">
  <defs>
    <clipPath id="clip-risk_color">
      <rect width="800" height="476.95"/>
    </clipPath>
  </defs>
  <g id="risk_color" data-name="risk color" clip-path="url(#clip-risk_color)">
    <g id="logo_color" data-name="logo color" transform="translate(0)">
      <path id="Path_13160" data-name="Path 13160" d="M121.357,49.337v2.427a7.12,7.12,0,0,1-2.346,5.178L104.286,70.534a7.2,7.2,0,0,1-4.045,1.133,6.553,6.553,0,0,1-4.773-1.537,40.452,40.452,0,0,0-23.462-8.09,31.148,31.148,0,0,0-22.977,9.547,33.413,33.413,0,0,0-9.3,24.271V208.233a8.09,8.09,0,0,1-8.09,8.09H11.165A8.09,8.09,0,0,1,5.178,213.9a8.09,8.09,0,0,1-2.427-5.987L4.774,74.094A150.648,150.648,0,0,0,3.4,52.331c-.971-5.906-1.537-9.628-1.78-10.922A51.617,51.617,0,0,1,0,33.318V32.186a5.663,5.663,0,0,1,1.78-4.207A6.23,6.23,0,0,1,6.392,26.2L31.877,21.83a6.553,6.553,0,0,1,3.964,1.375,7.2,7.2,0,0,1,2.832,3.4,28.235,28.235,0,0,1,1.214,4.369,64.076,64.076,0,0,1,28.64-6.391,69.658,69.658,0,0,1,27.507,5.582,70.548,70.548,0,0,1,23.543,16.181Z" transform="translate(0 154.413)" fill="#2d56a6"/>
      <path id="Path_13161" data-name="Path 13161" d="M69.609,38.3a23.545,23.545,0,0,1-7.362,17.275,24.3,24.3,0,0,1-17.718,7.346,24.3,24.3,0,0,1-17.718-7.1A24.972,24.972,0,1,1,62.247,20.626,24.189,24.189,0,0,1,69.609,38.3ZM56.179,80.441H32.96a6.885,6.885,0,0,0-4.935,2.018,6.531,6.531,0,0,0-2.184,5.166l-1.214,63.609v54.891l1.214,63.69a6.129,6.129,0,0,0,2.184,4.763A7.29,7.29,0,0,0,32.96,276.6h23.22a6.642,6.642,0,0,0,4.773-2.018,6.29,6.29,0,0,0,2.023-4.763l1.294-63.69V151.235L62.732,87.626a6.692,6.692,0,0,0-2.023-5.166A6.317,6.317,0,0,0,56.179,80.441Z" transform="translate(137.783 93.675)" fill="#2d56a6"/>
      <path id="Path_13162" data-name="Path 13162" d="M171.011,146.444a54.044,54.044,0,0,1,2.832,17.152,45.307,45.307,0,0,1-10.194,29.045,64.723,64.723,0,0,1-26.7,19.579,91.584,91.584,0,0,1-35.274,6.715,89.723,89.723,0,0,1-39.4-8.9,72.814,72.814,0,0,1-30.339-26.941,8.09,8.09,0,0,1-.809-3.964,6.634,6.634,0,0,1,3.641-6.8L54.752,161.25a7.6,7.6,0,0,1,3.155-.809,7.443,7.443,0,0,1,5.987,2.832,50.646,50.646,0,0,0,17.556,12.3,51.293,51.293,0,0,0,21.116,4.854,45.791,45.791,0,0,0,21.359-5.178,16.181,16.181,0,0,0,9.708-14.806,14.482,14.482,0,0,0-8.09-13.754,94.335,94.335,0,0,0-24.271-7.362,197.729,197.729,0,0,1-28.64-8.09,62.377,62.377,0,0,1-28.316-21.116,49.514,49.514,0,0,1-9.547-29.126A53.639,53.639,0,0,1,50.06,43.939,71.034,71.034,0,0,1,92.534,22.823a113.266,113.266,0,0,1,16.181-1.214,75,75,0,0,1,67.393,37.216,6.958,6.958,0,0,1,1.133,3.964,7.443,7.443,0,0,1-3.964,6.8L155.721,79.941a11.084,11.084,0,0,1-3.56.809A8.09,8.09,0,0,1,145.769,78a48.543,48.543,0,0,0-39.077-19.579,59.142,59.142,0,0,0-8.09.809,35.84,35.84,0,0,0-16.181,6.8,15.453,15.453,0,0,0-7.2,10.76,21.844,21.844,0,0,0,4.045,16.181,28.883,28.883,0,0,0,12.7,8.98A176.7,176.7,0,0,0,114.7,108.1c10.6,2.67,19.255,5.178,25.889,7.6a57.118,57.118,0,0,1,18.527,10.922,42.474,42.474,0,0,1,11.893,19.822Z" transform="translate(219.94 152.531)" fill="#2d56a6"/>
      <path id="Path_13163" data-name="Path 13163" d="M169.156,302.643l-55.743-74.351-18.77,22.9L93.43,301.106a6.554,6.554,0,0,1-1.942,4.773,6.877,6.877,0,0,1-4.773,2.023H63.09a6.634,6.634,0,0,1-4.773-2.023,6.31,6.31,0,0,1-2.023-4.773L55,237.273V157.906l1.214-142.23a6.877,6.877,0,0,1,6.877-6.8H86.634a6.8,6.8,0,0,1,6.715,6.8l1.295,142.23v31.553l62.215-72.814a12.3,12.3,0,0,1,10.356-5.178h27.427a6.472,6.472,0,0,1,4.854,2.184,7.362,7.362,0,0,1,1.942,5.016,7.038,7.038,0,0,1-1.537,4.369l-59.06,72.814a2.751,2.751,0,0,0,0,4.045l70.225,97.166a5.906,5.906,0,0,1,1.537,4.369,6.149,6.149,0,0,1-2.184,4.773,7.443,7.443,0,0,1-4.935,2.023H180.321a13.592,13.592,0,0,1-11.165-5.582Z" transform="translate(389.285 62.723)" fill="#2d56a6"/>
      <path id="Path_13164" data-name="Path 13164" d="M.4,89.9V68.376a14.725,14.725,0,0,1,2.346-7.281,14.725,14.725,0,0,1,5.582-5.34A14.4,14.4,0,0,1,15.853,53a15.129,15.129,0,0,1,8.09,2.1,17.233,17.233,0,0,1,5.582,5.987,16.181,16.181,0,0,1,0,15.534,17.233,17.233,0,0,1-5.663,5.663,15.129,15.129,0,0,1-8.09,2.1,12.3,12.3,0,0,1-5.1-1.214,10.679,10.679,0,0,1-3.883-2.913h0V99.2a1.456,1.456,0,0,1,0,.89,1.214,1.214,0,0,1-.89,0H1.856a1.214,1.214,0,0,1-.89,0,1.375,1.375,0,0,1,0-.89C.562,97.825.481,94.67.4,89.9ZM7.924,73.716a10.275,10.275,0,0,0,3.317,3.4,9.142,9.142,0,0,0,4.612,1.214,8.9,8.9,0,0,0,4.612-1.052,10.518,10.518,0,0,0,3.4-3.4,9.385,9.385,0,0,0,0-9.223,9.142,9.142,0,0,0-3.4-3.56,8.9,8.9,0,0,0-4.612-1.214,9.142,9.142,0,0,0-4.612,1.214,10.275,10.275,0,0,0-3.317,3.4,8.9,8.9,0,0,0,0,9.223Z" transform="translate(2.837 375.194)" fill="#2d56a6"/>
      <path id="Path_13165" data-name="Path 13165" d="M28.223,55.148a16.181,16.181,0,0,1,5.663,5.663,16.181,16.181,0,0,1,0,15.534,15.21,15.21,0,0,1-5.663,5.663,15.541,15.541,0,0,1-21.2-21.2,16.181,16.181,0,0,1,5.663-5.663,15.129,15.129,0,0,1,8.09-2.1,15.534,15.534,0,0,1,7.443,2.1ZM15.764,60.811a9.79,9.79,0,0,0-3.4,3.4,8.9,8.9,0,0,0-1.214,4.612,9.466,9.466,0,0,0,1.214,4.692,9.79,9.79,0,0,0,3.4,3.4,8.737,8.737,0,0,0,4.692,1.295,8.9,8.9,0,0,0,4.692-1.214,9.143,9.143,0,0,0,3.4-3.4A9.466,9.466,0,0,0,29.76,68.9a8.9,8.9,0,0,0-1.214-4.612,9.142,9.142,0,0,0-3.4-3.479,8.9,8.9,0,0,0-4.692-1.294,8.737,8.737,0,0,0-4.692,1.294Z" transform="translate(35.449 375.478)" fill="#2d56a6"/>
      <path id="Path_13166" data-name="Path 13166" d="M42.875,53.179a.971.971,0,0,1,.647,0h4.692a1.052,1.052,0,0,1,0,.971l-8.09,28.317a1.052,1.052,0,0,1-1.052.809H34.866a1.052,1.052,0,0,1-.647,0,1.457,1.457,0,0,1-.4-.566l-5.34-16.666L23.054,82.709a.809.809,0,0,1,0,.566H17.471a.809.809,0,0,1,0-.566L9.381,54.392h0a1.052,1.052,0,0,1,0-.809,1.375,1.375,0,0,1,.809,0h3.641a1.133,1.133,0,0,1,1.052.728l5.259,19.417,5.5-16.181a1.052,1.052,0,0,1,1.052-.728h3.8a.734.734,0,0,1,1.052.566l5.5,16.181,5.259-19.417a.971.971,0,0,1,.566-.971Z" transform="translate(65.942 376.072)" fill="#2d56a6"/>
      <path id="Path_13167" data-name="Path 13167" d="M44.05,67.6a2.913,2.913,0,0,1-1.133,2.184,3.8,3.8,0,0,1-2.508.89H21.155v.485a8.09,8.09,0,0,0,3.4,5.016A11.084,11.084,0,0,0,30.7,77.8a10.112,10.112,0,0,0,3.883-.809,13.106,13.106,0,0,0,3.56-2.184,1.214,1.214,0,0,1,1.618,0l2.508,2.427a.971.971,0,0,1,.4.809,1.294,1.294,0,0,1-.4.89,16.181,16.181,0,0,1-11.65,4.935,15.534,15.534,0,0,1-8.09-2.1,15.21,15.21,0,0,1-5.744-5.582,15.7,15.7,0,0,1-2.023-8.09,16.992,16.992,0,0,1,0-2.265,15.534,15.534,0,0,1,2.184-6.634,14.967,14.967,0,0,1,5.5-4.531,17.233,17.233,0,0,1,7.362-1.618h1.861a12.621,12.621,0,0,1,6.23,2.427,15.209,15.209,0,0,1,4.45,4.935,11.569,11.569,0,0,1,1.618,5.582Zm-19.741-6.8a8.576,8.576,0,0,0-3.236,4.854h0v.4a.4.4,0,0,0,.4,0H38.144a.485.485,0,0,0,0-.566,11.165,11.165,0,0,0-2.832-4.854,7.039,7.039,0,0,0-5.421-2.023A8.657,8.657,0,0,0,24.31,60.807Z" transform="translate(104.409 375.482)" fill="#2d56a6"/>
      <path id="Path_13168" data-name="Path 13168" d="M37.886,57.61a.89.89,0,0,1-.4.809L35.216,60.6h-.647a.971.971,0,0,1-.324-.324,6.473,6.473,0,0,0-3.722-1.294,4.935,4.935,0,0,0-3.641,1.456,5.34,5.34,0,0,0-1.456,3.883V81.962a1.294,1.294,0,0,1,0,.971,1.456,1.456,0,0,1-.971.4H20.492a1.3,1.3,0,0,1-.89-.4,1.052,1.052,0,0,1-.4-.971V60.927a21.278,21.278,0,0,0,0-3.479,13.107,13.107,0,0,1,0-1.7,3.236,3.236,0,0,1,0-1.294h0a.971.971,0,0,1,0-.647,1.051,1.051,0,0,1,.728,0l4.045-.647a.89.89,0,0,1,.566,0,.971.971,0,0,1,.485.485s0,.485,0,.728a10.679,10.679,0,0,1,4.531-1.052,11.326,11.326,0,0,1,4.288.89A11,11,0,0,1,37.563,56.8a1.3,1.3,0,0,1,.324.809Z" transform="translate(135.457 376.009)" fill="#2d56a6"/>
      <path id="Path_13169" data-name="Path 13169" d="M51.859,67.816A2.913,2.913,0,0,1,50.726,70a3.8,3.8,0,0,1-2.508.89H28.963a.4.4,0,0,0-.4,0s0,0,0,.485a8.09,8.09,0,0,0,3.479,5.016A10.68,10.68,0,0,0,38.1,78.01a10.113,10.113,0,0,0,3.883-.809,13.106,13.106,0,0,0,3.56-2.184.971.971,0,0,1,.809,0,.89.89,0,0,1,.809,0l2.508,2.427a.971.971,0,0,1,.4.809,1.294,1.294,0,0,1-.4.89,16.181,16.181,0,0,1-11.65,4.935,15.534,15.534,0,0,1-8.09-2.1,15.372,15.372,0,0,1-8.09-13.592,16.988,16.988,0,0,1,0-2.265,15.534,15.534,0,0,1,2.751-6.958,14.967,14.967,0,0,1,5.5-4.531,17.233,17.233,0,0,1,7.362-1.618h1.861a12.621,12.621,0,0,1,6.23,2.427A15.21,15.21,0,0,1,50,60.372a10.76,10.76,0,0,1,1.618,5.582Zm-19.741-6.8a8.09,8.09,0,0,0-3.155,4.854h0a.647.647,0,0,0,0,.4H45.548a.566.566,0,0,0,.485,0,.485.485,0,0,0,0-.566A11.165,11.165,0,0,0,43.2,60.858a7.039,7.039,0,0,0-5.421-2.023A8.657,8.657,0,0,0,32.118,61.02Z" transform="translate(154.382 375.269)" fill="#2d56a6"/>
      <path id="Path_13170" data-name="Path 13170" d="M57.36,61.012V81.723a15.615,15.615,0,0,1-8.09,12.783,14.158,14.158,0,0,1-7.524,2.023A15.865,15.865,0,0,1,28.4,72.9a16.181,16.181,0,0,1,5.582-5.663,15.129,15.129,0,0,1,8.09-2.1,11.73,11.73,0,0,1,5.016,1.214,8.9,8.9,0,0,1,3.964,2.913h0V52.274a1.294,1.294,0,0,1,.4-.89,1.214,1.214,0,0,1,.89,0h3.964A1.133,1.133,0,0,1,57.522,52.6,77.968,77.968,0,0,0,57.36,61.012ZM49.836,76.3a10.275,10.275,0,0,0-3.317-3.4,9.385,9.385,0,0,0-9.223,0,11.327,11.327,0,0,0-3.4,3.4,9.385,9.385,0,0,0,0,9.223,9.789,9.789,0,0,0,3.4,3.4,9.384,9.384,0,0,0,4.612,1.214,8.9,8.9,0,0,0,4.612-1.214,10.275,10.275,0,0,0,3.317-3.4A8.9,8.9,0,0,0,49.836,76.3Z" transform="translate(186.13 363.142)" fill="#2d56a6"/>
      <path id="Path_13171" data-name="Path 13171" d="M36.147,72.429V52.284a1.052,1.052,0,0,1,0-.89,1.214,1.214,0,0,1,.89,0h3.317a1.214,1.214,0,0,1,.89,0,1.294,1.294,0,0,1,0,.89V69.355h0a8.9,8.9,0,0,1,3.964-2.913,11.732,11.732,0,0,1,5.016-1.214,15.129,15.129,0,0,1,8.09,2.1A17.233,17.233,0,0,1,63.978,73a15.514,15.514,0,0,1-5.663,21.2,15.129,15.129,0,0,1-8.09,2.1A14.4,14.4,0,0,1,42.7,94.273,15.615,15.615,0,0,1,34.61,81.49C36.228,79.306,36.147,76.313,36.147,72.429Zm11,0a8.575,8.575,0,0,0-3.4,3.4,8.9,8.9,0,0,0-1.214,4.612,8.09,8.09,0,0,0,1.294,4.612,10.275,10.275,0,0,0,3.317,3.4,9.142,9.142,0,0,0,4.612,1.214,8.819,8.819,0,0,0,4.531-1.214,9.79,9.79,0,0,0,3.4-3.4,8.9,8.9,0,0,0,0-9.223,9.789,9.789,0,0,0-3.4-3.4A9.223,9.223,0,0,0,47.15,72.429Z" transform="translate(245.038 363.212)" fill="#2d56a6"/>
      <path id="Path_13172" data-name="Path 13172" d="M45.194,100.125a1.3,1.3,0,0,1,0-1.214l5.582-15.534L39.207,55.061h0a.971.971,0,0,1,0-.809.809.809,0,0,1,.728,0h3.883a.971.971,0,0,1,.971.647l9.547,19.66,8.98-20.712a1.133,1.133,0,0,1,1.052-.647h3.883a1.133,1.133,0,0,1,.89.485,1.052,1.052,0,0,1,0,.971L51.262,99.478a1.051,1.051,0,0,1-.485.566,1.375,1.375,0,0,1-.809,0H46.246a1.133,1.133,0,0,1-1.052.081Z" transform="translate(276.962 376.616)" fill="#2d56a6"/>
      <path id="Path_13173" data-name="Path 13173" d="M71.861,82.988A1.133,1.133,0,0,1,70.81,84.12H67.331a1.133,1.133,0,0,1-.809-.4.89.89,0,0,1,0-.728V66.241a7.039,7.039,0,0,0-7.039-7.362A6.958,6.958,0,0,0,54.629,60.9a6.715,6.715,0,0,0-2.1,5.34V82.988a.89.89,0,0,1,0,.728.971.971,0,0,1-.809.4H48.237a1.133,1.133,0,0,1-.809-.4.89.89,0,0,1,0-.728V54.752a1.133,1.133,0,0,1,.4-.809,1.214,1.214,0,0,1,.728,0h3.8a1.214,1.214,0,0,1,.728,0,1.618,1.618,0,0,1,0,.728v1.7a8.091,8.091,0,0,1,7.039-3.317,13.51,13.51,0,0,1,7.281,1.861,11.65,11.65,0,0,1,4.45,4.854,14.886,14.886,0,0,1,1.456,6.472Z" transform="translate(335.242 375.469)" fill="#2d56a6"/>
      <path id="Path_13174" data-name="Path 13174" d="M80.99,67.887a3.317,3.317,0,0,1-1.214,2.184,3.641,3.641,0,0,1-2.508.89H58.094a.567.567,0,0,0-.485,0,.486.486,0,0,0,0,.485,7.281,7.281,0,0,0,3.4,5.016,10.679,10.679,0,0,0,6.068,1.618,9.87,9.87,0,0,0,3.883-.809,11.972,11.972,0,0,0,3.56-2.184,1.052,1.052,0,0,1,.809,0,.89.89,0,0,1,.809,0l2.508,2.427a.971.971,0,0,1,.4.809,1.3,1.3,0,0,1-.4.89,16.181,16.181,0,0,1-19.66,2.832,15.048,15.048,0,0,1-5.663-5.582,16.181,16.181,0,0,1-2.1-8.09,14.482,14.482,0,0,1,8.09-13.754A16.828,16.828,0,0,1,66.589,53H68.45a12.622,12.622,0,0,1,6.23,2.427,14.32,14.32,0,0,1,4.45,4.935,10.841,10.841,0,0,1,1.7,5.582Zm-19.822-6.8a8.091,8.091,0,0,0-3.155,4.854h0a.647.647,0,0,0,0,.4H74.679a.373.373,0,0,0,.485-.566,11.165,11.165,0,0,0-2.832-4.854,7.039,7.039,0,0,0-5.421-2.023,8.819,8.819,0,0,0-5.744,2.184Z" transform="translate(362.478 375.198)" fill="#2d56a6"/>
      <path id="Path_13175" data-name="Path 13175" d="M55.777,81.127a1.132,1.132,0,0,1,0-.809v-.647l8.738-11.246-8.9-11.488a.971.971,0,0,1,0-.647.89.89,0,0,1,0-.809l2.832-2.265a.89.89,0,0,1,.647,0,.809.809,0,0,1,.809,0l8.09,10.113,8.09-10.113a5996.836,5996.836,0,0,0,1.456,0l2.832,2.265a1.133,1.133,0,0,1,.4.809,1.051,1.051,0,0,1,0,.647L72.362,68.425l8.98,11.569a.728.728,0,0,1,0,.566,1.133,1.133,0,0,1-.4.809l-2.832,2.265a.89.89,0,0,1-.647,0,1.133,1.133,0,0,1-.809-.4L68.56,73.037,60.469,83.23a1.69,1.69,0,0,1-1.456.4Z" transform="translate(393.069 375.954)" fill="#2d56a6"/>
      <path id="Path_13176" data-name="Path 13176" d="M79.5,66.841a.971.971,0,0,1,0,.728v3.722a1.051,1.051,0,0,1,0,.809,1.214,1.214,0,0,1-.728,0h-6.23V95.967a.971.971,0,0,1,0,.728,1.456,1.456,0,0,1-.728,0h-4.45a1.456,1.456,0,0,1-.809,0,.971.971,0,0,1,0-.728v-23.3H60.411a1.456,1.456,0,0,1-.809,0,1.052,1.052,0,0,1,0-.728v-3.8a.971.971,0,0,1,0-.728,1.052,1.052,0,0,1,.809,0H66.56V52.036a.809.809,0,0,1,0-.728.971.971,0,0,1,.809,0h4.045a.971.971,0,0,1,.728,0,.809.809,0,0,1,0,.728V67.407h6.23a1.214,1.214,0,0,1,1.133-.566Z" transform="translate(421.488 362.571)" fill="#2d56a6"/>
      <path id="Path_13177" data-name="Path 13177" d="M62.57,89.4V67.878a14.644,14.644,0,0,1,2.265-7.443,16.181,16.181,0,0,1,5.582-5.34,14.644,14.644,0,0,1,7.6-2.023,15.534,15.534,0,0,1,8.091,2.1A16.181,16.181,0,0,1,91.7,60.839a15.372,15.372,0,0,1,0,15.534,16.181,16.181,0,0,1-5.582,5.663,15.534,15.534,0,0,1-8.09,2.1,12.3,12.3,0,0,1-5.1-1.214,9.385,9.385,0,0,1-3.883-2.913h0V98.945a1.375,1.375,0,0,1,0,.89,1.214,1.214,0,0,1-.89,0H64.835a1.214,1.214,0,0,1-.89,0,1.456,1.456,0,0,1,0-.89C62.732,97.327,62.651,94.172,62.57,89.4Zm7.443-16.181a10.517,10.517,0,0,0,3.4,3.4,9.385,9.385,0,0,0,9.223,0,10.274,10.274,0,0,0,3.317-3.4,8.9,8.9,0,0,0,0-9.223,9.223,9.223,0,0,0-12.54-3.4,10.517,10.517,0,0,0-3.4,3.4A9.385,9.385,0,0,0,70.013,73.217Z" transform="translate(442.993 375.693)" fill="#2d56a6"/>
      <path id="Path_13178" data-name="Path 13178" d="M97.733,74.18v8.495a1.294,1.294,0,0,1,0,.89,1.375,1.375,0,0,1-.971.4H92.879a1.132,1.132,0,0,1-.809-.4,1.294,1.294,0,0,1,0-.89V79.925h0a8.9,8.9,0,0,1-3.883,2.993,12.3,12.3,0,0,1-5.1,1.214,15.129,15.129,0,0,1-8.09-2.1,14.644,14.644,0,0,1-5.663-5.663,15.372,15.372,0,0,1,0-15.534A16.18,16.18,0,0,1,75,55.168a15.129,15.129,0,0,1,8.09-2.1,14.158,14.158,0,0,1,7.524,2.023,16.181,16.181,0,0,1,5.582,5.34,14.644,14.644,0,0,1,2.265,7.443A18.962,18.962,0,0,0,97.733,74.18ZM86.892,76.85a10.275,10.275,0,0,0,3.317-3.4,9.547,9.547,0,0,0,0-9.3,10.274,10.274,0,0,0-3.4-3.317,9.223,9.223,0,0,0-9.142,0,11.326,11.326,0,0,0-3.4,3.4,9.385,9.385,0,0,0,0,9.223,11.327,11.327,0,0,0,3.4,3.4,9.385,9.385,0,0,0,9.223,0Z" transform="translate(475.983 375.62)" fill="#2d56a6"/>
      <path id="Path_13179" data-name="Path 13179" d="M77.554,99.265a1.133,1.133,0,0,1,0-1.214l5.582-15.534L71.567,54.2h0a.544.544,0,1,1,.728-.809h3.883a1.133,1.133,0,0,1,1.052.647l9.061,20.712,8.98-20.712a1.052,1.052,0,0,1,1.052-.647h3.641a1.052,1.052,0,0,1,.89.485.89.89,0,0,1,0,.971L83.784,98.618a1.052,1.052,0,0,1-.485.566,1.133,1.133,0,0,1-.728,0h-3.56a1.214,1.214,0,0,1-1.456.081Z" transform="translate(506.071 377.476)" fill="#2d56a6"/>
      <path id="Path_13180" data-name="Path 13180" d="M265.245,122.57V29.854C193.644,39.967,170.425,0,170.425,0s-23.3,39.967-94.82,29.854V122.57s-1.375,28.074,10.113,43.688a183.167,183.167,0,0,0,84.707,68.364,183.167,183.167,0,0,0,84.626-68.364C266.539,150.644,265.245,122.57,265.245,122.57ZM234.5,163.022a211.809,211.809,0,0,1-64,49.756,211.564,211.564,0,0,1-64.076-49.756c-13.592-13.916-11.084-37.054-11.084-37.054V50.484a115.127,115.127,0,0,0,75.241-24.271,114.8,114.8,0,0,0,75.16,24.271v75.484s2.184,23.139-11.327,36.65Z" transform="translate(534.712)" fill="#e99323"/>
      <rect id="Rectangle_8236" data-name="Rectangle 8236" width="85.111" height="17.961" transform="translate(662.581 70.306)" fill="#e99323"/>
      <rect id="Rectangle_8237" data-name="Rectangle 8237" width="85.111" height="17.961" transform="translate(662.581 103.989)" fill="#e99323"/>
      <rect id="Rectangle_8238" data-name="Rectangle 8238" width="85.111" height="17.961" transform="translate(662.581 137.844)" fill="#e99323"/>
    </g>
  </g>
</svg>
